<svg width="48" height="48" viewBox="0 0 48 48" xmlns="http://www.w3.org/2000/svg">
  <defs>
    <linearGradient id="iconGradient" x1="0%" y1="0%" x2="100%" y2="100%">
      <stop offset="0%" style="stop-color:#2563eb;stop-opacity:1" />
      <stop offset="100%" style="stop-color:#1d4ed8;stop-opacity:1" />
    </linearGradient>
  </defs>
  
  <!-- Background -->
  <rect x="4" y="4" width="40" height="40" rx="8" fill="rgba(37, 99, 235, 0.1)" stroke="url(#iconGradient)" stroke-width="1.5"/>
  
  <!-- Main content -->
  <g transform="translate(10, 10)">
    <!-- Document -->
    <rect x="0" y="0" width="16" height="20" rx="2" fill="none" stroke="url(#iconGradient)" stroke-width="1.8"/>
    
    <!-- Text lines -->
    <line x1="2" y1="3" x2="10" y2="3" stroke="#2563eb" stroke-width="1.2" opacity="0.7"/>
    <line x1="2" y1="6" x2="14" y2="6" stroke="#2563eb" stroke-width="1.2" opacity="0.7"/>
    <line x1="2" y1="9" x2="8" y2="9" stroke="#2563eb" stroke-width="1.2" opacity="0.7"/>
    <line x1="2" y1="12" x2="12" y2="12" stroke="#2563eb" stroke-width="1.2" opacity="0.5"/>
    <line x1="2" y1="15" x2="6" y2="15" stroke="#2563eb" stroke-width="1.2" opacity="0.5"/>
    
    <!-- Extraction arrows -->
    <path d="M18 5 L22 7 L18 9 Z" fill="url(#iconGradient)"/>
    <path d="M18 11 L22 13 L18 15 Z" fill="url(#iconGradient)"/>
    
    <!-- Fragment indicators -->
    <rect x="24" y="4" width="4" height="4" rx="0.5" fill="#2563eb" opacity="0.3"/>
    <rect x="24" y="10" width="4" height="4" rx="0.5" fill="#2563eb" opacity="0.3"/>
    
    <!-- Verification check -->
    <path d="M18 18 L20 20 L24 16" stroke="#10b981" stroke-width="1.8" fill="none" stroke-linecap="round" stroke-linejoin="round"/>
  </g>
</svg>
